<svg width="27" height="24" viewBox="0 0 27 24" fill="none" xmlns="http://www.w3.org/2000/svg">
<path d="M8.75436 16.1311H8.75556C8.75656 16.1311 8.75756 16.1309 8.75857 16.1309H22.7017C23.045 16.1309 23.3468 15.9032 23.4411 15.5731L26.5173 4.80651C26.5836 4.57439 26.5371 4.32485 26.3919 4.13219C26.2465 3.93953 26.0192 3.82618 25.7779 3.82618H6.98075L6.431 1.35222C6.3527 1.00034 6.04067 0.75 5.68019 0.75H1.06592C0.641142 0.75 0.296875 1.09427 0.296875 1.51904C0.296875 1.94382 0.641142 2.28809 1.06592 2.28809H5.06335C5.16068 2.72648 7.69412 14.1272 7.83992 14.7831C7.02261 15.1383 6.44923 15.9532 6.44923 16.8999C6.44923 18.1721 7.48423 19.2071 8.75636 19.2071H22.7017C23.1265 19.2071 23.4707 18.8628 23.4707 18.438C23.4707 18.0132 23.1265 17.669 22.7017 17.669H8.75636C8.33239 17.669 7.98732 17.3239 7.98732 16.8999C7.98732 16.4766 8.33118 16.1321 8.75436 16.1311V16.1311ZM24.7583 5.36427L22.1215 14.5928H9.3732L7.32242 5.36427H24.7583Z" fill="white"/>
<path d="M7.9873 21.5142C7.9873 22.7863 9.02231 23.8213 10.2944 23.8213C11.5666 23.8213 12.6016 22.7863 12.6016 21.5142C12.6016 20.242 11.5666 19.207 10.2944 19.207C9.02231 19.207 7.9873 20.242 7.9873 21.5142ZM10.2944 20.7451C10.7184 20.7451 11.0635 21.0902 11.0635 21.5142C11.0635 21.9381 10.7184 22.2832 10.2944 22.2832C9.87046 22.2832 9.52539 21.9381 9.52539 21.5142C9.52539 21.0902 9.87046 20.7451 10.2944 20.7451Z" fill="white"/>
<path d="M18.8564 21.5142C18.8564 22.7863 19.8915 23.8213 21.1636 23.8213C22.4357 23.8213 23.4707 22.7863 23.4707 21.5142C23.4707 20.242 22.4357 19.207 21.1636 19.207C19.8915 19.207 18.8564 20.242 18.8564 21.5142ZM21.1636 20.7451C21.5876 20.7451 21.9326 21.0902 21.9326 21.5142C21.9326 21.9381 21.5876 22.2832 21.1636 22.2832C20.7396 22.2832 20.3945 21.9381 20.3945 21.5142C20.3945 21.0902 20.7396 20.7451 21.1636 20.7451Z" fill="white"/>
</svg>
