<svg width="21" height="21" viewBox="0 0 21 21" fill="none" xmlns="http://www.w3.org/2000/svg">
<path fill-rule="evenodd" clip-rule="evenodd" d="M6.5 0.632812C6.5 0.28332 6.21668 0 5.86719 0C5.51769 0 5.23438 0.28332 5.23438 0.632812L5.23438 19.6172C5.23438 19.9667 5.5177 20.25 5.86719 20.25C6.21668 20.25 6.5 19.9667 6.5 19.6172L6.5 0.632812ZM11.5625 7.59375C11.5625 7.24426 11.2792 6.96094 10.9297 6.96094C10.5802 6.96094 10.2969 7.24426 10.2969 7.59375L10.2969 19.6172C10.2969 19.9667 10.5802 20.25 10.9297 20.25C11.2792 20.25 11.5625 19.9667 11.5625 19.6172L11.5625 7.59375ZM15.9922 13.2891C16.3417 13.2891 16.625 13.5724 16.625 13.9219V19.6172C16.625 19.9667 16.3417 20.25 15.9922 20.25C15.6427 20.25 15.3594 19.9667 15.3594 19.6172V13.9219C15.3594 13.5724 15.6427 13.2891 15.9922 13.2891ZM1.4375 5.0625C1.4375 4.71301 1.15418 4.42969 0.804688 4.42969C0.455195 4.42969 0.171875 4.71301 0.171875 5.0625V19.6172C0.171875 19.9667 0.455195 20.25 0.804688 20.25C1.15418 20.25 1.4375 19.9667 1.4375 19.6172L1.4375 5.0625Z" fill="#D5D5D5"/>
</svg>
