<svg width="21" height="20" viewBox="0 0 21 20" fill="none" xmlns="http://www.w3.org/2000/svg">
<path d="M10.4219 17.5C10.1727 17.5 9.93254 17.413 9.74536 17.2551C9.0384 16.6595 8.35681 16.0998 7.75546 15.6062L7.75239 15.6036C5.98933 14.1561 4.46687 12.906 3.40756 11.6747C2.22342 10.298 1.67188 8.99281 1.67188 7.56693C1.67188 6.18157 2.16494 4.90348 3.06016 3.96795C3.96605 3.02134 5.20907 2.5 6.56064 2.5C7.57081 2.5 8.49593 2.80769 9.31023 3.41444C9.72119 3.72071 10.0937 4.09555 10.4219 4.53277C10.7502 4.09555 11.1226 3.72071 11.5336 3.41444C12.348 2.80769 13.2731 2.5 14.2832 2.5C15.6347 2.5 16.8778 3.02134 17.7837 3.96795C18.6789 4.90348 19.1719 6.18157 19.1719 7.56693C19.1719 8.99281 18.6205 10.298 17.4363 11.6745C16.377 12.906 14.8547 14.156 13.0919 15.6033C12.4895 16.0978 11.8068 16.6584 11.0983 17.2553C10.9112 17.413 10.6709 17.5 10.4219 17.5ZM6.56064 3.48763C5.4988 3.48763 4.52334 3.89591 3.81371 4.63734C3.09354 5.38997 2.69687 6.43034 2.69687 7.56693C2.69687 8.76617 3.15949 9.8387 4.19677 11.0445C5.19933 12.21 6.69055 13.4343 8.41716 14.852L8.42036 14.8546C9.02398 15.3502 9.70824 15.912 10.4204 16.512C11.1368 15.9109 11.8222 15.3481 12.427 14.8517C14.1535 13.4341 15.6446 12.21 16.6471 11.0445C17.6843 9.8387 18.1469 8.76617 18.1469 7.56693C18.1469 6.43034 17.7502 5.38997 17.03 4.63734C16.3205 3.89591 15.345 3.48763 14.2832 3.48763C13.5054 3.48763 12.7912 3.72586 12.1606 4.19562C11.5987 4.61445 11.2072 5.1439 10.9777 5.51436C10.8597 5.70486 10.6519 5.81857 10.4219 5.81857C10.1918 5.81857 9.98408 5.70486 9.86605 5.51436C9.63668 5.1439 9.24521 4.61445 8.68312 4.19562C8.05253 3.72586 7.33836 3.48763 6.56064 3.48763Z" fill="#C7CED5"/>
</svg>
