<svg width="19" height="19" viewBox="0 0 19 19" fill="none" xmlns="http://www.w3.org/2000/svg">
<path d="M5.13981 1.78125C4.82902 1.78125 4.52286 1.89258 4.26774 2.09668L4.23063 2.11523L4.21207 2.13379L2.3566 4.04492L2.37516 4.06348C1.80228 4.59229 1.62601 5.38318 1.87418 6.06738C1.8765 6.07202 1.87186 6.0813 1.87418 6.08594C2.37748 7.52625 3.66471 10.3071 6.17887 12.8213C8.70231 15.3447 11.5203 16.5809 12.9142 17.126H12.9328C13.6541 17.3672 14.4357 17.1956 14.9923 16.7178L16.8664 14.8438C17.3581 14.3521 17.3581 13.4985 16.8664 13.0068L14.4543 10.5947L14.4357 10.5576C13.944 10.0659 13.0719 10.0659 12.5802 10.5576L11.3927 11.7451C10.9637 11.5387 9.94083 11.0099 8.96207 10.0752C7.99027 9.14746 7.49393 8.08057 7.31071 7.66309L8.4982 6.47559C8.99686 5.97693 9.00614 5.14661 8.47965 4.65723L8.4982 4.63867L8.44254 4.58301L6.06754 2.13379L6.04899 2.11523L6.01188 2.09668C5.75675 1.89258 5.4506 1.78125 5.13981 1.78125ZM5.13981 2.96875C5.18387 2.96875 5.22794 2.98962 5.26969 3.02441L7.64469 5.45508L7.70035 5.51074C7.69571 5.5061 7.73514 5.56873 7.66324 5.64062L6.17887 7.125L5.90055 7.38477L6.03043 7.75586C6.03043 7.75586 6.71232 9.58118 8.14567 10.9473L8.27555 11.0586C9.65555 12.318 11.2814 13.0068 11.2814 13.0068L11.6525 13.1738L13.4152 11.4111C13.5172 11.3091 13.4987 11.3091 13.6007 11.4111L16.0314 13.8418C16.1335 13.9438 16.1335 13.9067 16.0314 14.0088L14.213 15.8271C13.9394 16.0614 13.6495 16.1101 13.3039 15.9941C11.9587 15.4653 9.34476 14.3173 7.01383 11.9863C4.66434 9.63684 3.43741 6.97192 2.98746 5.67773C2.89701 5.43652 2.96195 5.07935 3.17301 4.89844L3.21012 4.86133L5.00992 3.02441C5.05167 2.98962 5.09574 2.96875 5.13981 2.96875Z" fill="white"/>
</svg>
