<svg width="16" height="18" viewBox="0 0 16 18" fill="none" xmlns="http://www.w3.org/2000/svg">
<path d="M4.09782 0.640381C3.73095 0.640381 3.43353 0.937805 3.43353 1.30467V4.71469H1.44066C1.07379 4.71469 0.776367 5.01211 0.776367 5.37898V8.03614C0.776367 8.403 1.07379 8.70043 1.44066 8.70043H2.10495V12.0219C2.10495 15.1054 4.45144 17.6509 7.45252 17.9672C8.31377 18.058 9.21363 17.9287 8.7896 17.9586C11.7547 17.6082 14.0622 15.0796 14.0622 12.0219V8.70043H14.7264C15.0933 8.70043 15.3907 8.403 15.3907 8.03614V5.37898C15.3907 5.01211 15.0933 4.71469 14.7264 4.71469H12.7336V1.30467C12.7336 0.937805 12.4362 0.640381 12.0693 0.640381C11.7024 0.640381 11.405 0.937805 11.405 1.30467V4.71469H4.7621V1.30467C4.7621 0.937805 4.46468 0.640381 4.09782 0.640381ZM14.0622 7.37185H13.3979C13.031 7.37185 12.7336 7.66927 12.7336 8.03614V12.0219C12.7336 14.5859 10.6476 16.6719 8.08355 16.6719C5.51953 16.6719 3.43353 14.5859 3.43353 12.0219V8.03614C3.43353 7.66927 3.1361 7.37185 2.76924 7.37185H2.10495V6.04327H14.0622V7.37185Z" fill="#C7CED5"/>
<path d="M9.71024 11.4277L7.87742 10.5113L8.55429 9.83447C9.17527 9.21354 8.23676 8.27304 7.61485 8.89503L6.28627 10.2236C5.96604 10.5438 6.0535 11.0848 6.4589 11.2875L8.29172 12.2039L7.61485 12.8808C6.99241 13.5032 7.93951 14.4351 8.55429 13.8202L9.88287 12.4916C10.2031 12.1714 10.1156 11.6305 9.71024 11.4277Z" fill="#C7CED5"/>
</svg>
