<svg width="18" height="18" viewBox="0 0 18 18" fill="none" xmlns="http://www.w3.org/2000/svg">
<path d="M16.8027 9.55738C16.9505 9.55738 17.0922 9.49866 17.1968 9.39414C17.3013 9.28963 17.36 9.14787 17.36 9.00006C17.36 8.85226 17.3013 8.7105 17.1968 8.60599C17.0922 8.50147 16.9505 8.44275 16.8027 8.44275H15.1307V6.2135H16.8027C16.9505 6.2135 17.0922 6.15479 17.1968 6.05027C17.3013 5.94575 17.36 5.804 17.36 5.65619C17.36 5.50838 17.3013 5.36663 17.1968 5.26211C17.0922 5.1576 16.9505 5.09888 16.8027 5.09888H15.075C14.9596 4.54458 14.678 4.0386 14.2678 3.64832C13.8576 3.25804 13.3382 3.00197 12.7789 2.91421V1.19769C12.7789 1.04988 12.7202 0.90813 12.6157 0.803614C12.5111 0.699097 12.3694 0.640381 12.2216 0.640381C12.0738 0.640381 11.932 0.699097 11.8275 0.803614C11.723 0.90813 11.6643 1.04988 11.6643 1.19769V2.86963H9.55762V1.19769C9.55762 1.04988 9.49891 0.90813 9.39439 0.803614C9.28987 0.699097 9.14812 0.640381 9.00031 0.640381C8.8525 0.640381 8.71075 0.699097 8.60623 0.803614C8.50171 0.90813 8.443 1.04988 8.443 1.19769V2.86963H6.09114V1.19769C6.09114 1.04988 6.03242 0.90813 5.92791 0.803614C5.82339 0.699097 5.68163 0.640381 5.53383 0.640381C5.38602 0.640381 5.24426 0.699097 5.13975 0.803614C5.03523 0.90813 4.97651 1.04988 4.97651 1.19769V2.96437C4.46867 3.09157 4.00692 3.35927 3.6442 3.73678C3.28147 4.11429 3.03242 4.58636 2.92561 5.09888H1.19794C1.05013 5.09888 0.908374 5.1576 0.803858 5.26211C0.699342 5.36663 0.640625 5.50838 0.640625 5.65619C0.640625 5.804 0.699342 5.94575 0.803858 6.05027C0.908374 6.15479 1.05013 6.2135 1.19794 6.2135H2.86987V8.44275H1.19794C1.05013 8.44275 0.908374 8.50147 0.803858 8.60599C0.699342 8.7105 0.640625 8.85226 0.640625 9.00006C0.640625 9.14787 0.699342 9.28963 0.803858 9.39414C0.908374 9.49866 1.05013 9.55738 1.19794 9.55738H2.86987V11.7866H1.19794C1.05013 11.7866 0.908374 11.8453 0.803858 11.9499C0.699342 12.0544 0.640625 12.1961 0.640625 12.3439C0.640625 12.4917 0.699342 12.6335 0.803858 12.738C0.908374 12.8425 1.05013 12.9013 1.19794 12.9013H2.92561C3.03242 13.4138 3.28147 13.8858 3.6442 14.2633C4.00692 14.6409 4.46867 14.9086 4.97651 15.0358V16.8024C4.97651 16.9502 5.03523 17.092 5.13975 17.1965C5.24426 17.301 5.38602 17.3597 5.53383 17.3597C5.68163 17.3597 5.82339 17.301 5.92791 17.1965C6.03242 17.092 6.09114 16.9502 6.09114 16.8024V15.1305H8.443V16.8024C8.443 16.9502 8.50171 17.092 8.60623 17.1965C8.71075 17.301 8.8525 17.3597 9.00031 17.3597C9.14812 17.3597 9.28987 17.301 9.39439 17.1965C9.49891 17.092 9.55762 16.9502 9.55762 16.8024V15.1305H11.6643V16.8024C11.6643 16.9502 11.723 17.092 11.8275 17.1965C11.932 17.301 12.0738 17.3597 12.2216 17.3597C12.3694 17.3597 12.5111 17.301 12.6157 17.1965C12.7202 17.092 12.7789 16.9502 12.7789 16.8024V15.0859C13.3382 14.9982 13.8576 14.7421 14.2678 14.3518C14.678 13.9615 14.9596 13.4556 15.075 12.9013H16.8027C16.9505 12.9013 17.0922 12.8425 17.1968 12.738C17.3013 12.6335 17.36 12.4917 17.36 12.3439C17.36 12.1961 17.3013 12.0544 17.1968 11.9499C17.0922 11.8453 16.9505 11.7866 16.8027 11.7866H15.1307V9.55738H16.8027ZM12.3442 14.0159H5.65644C5.21301 14.0159 4.78775 13.8397 4.4742 13.5262C4.16065 13.2126 3.9845 12.7874 3.9845 12.3439V5.65619C3.9845 5.21277 4.16065 4.7875 4.4742 4.47395C4.78775 4.1604 5.21301 3.98425 5.65644 3.98425H12.3442C12.7876 3.98425 13.2129 4.1604 13.5264 4.47395C13.84 4.7875 14.0161 5.21277 14.0161 5.65619V12.3439C14.0161 12.7874 13.84 13.2126 13.5264 13.5262C13.2129 13.8397 12.7876 14.0159 12.3442 14.0159Z" fill="#C7CED5"/>
<path d="M11.1313 8.35178C11.1107 8.31154 11.0662 8.28572 11.0171 8.28572H9.52344L10.9976 6.17543C11.0222 6.14024 11.0237 6.09567 11.0015 6.05921C10.9793 6.02263 10.937 6 10.8911 6H8.87428C8.82651 6 8.78288 6.02446 8.76147 6.0632L6.87071 9.49178C6.85117 9.5271 6.85331 9.56915 6.87625 9.60286C6.89933 9.63657 6.93978 9.65714 6.98352 9.65714H8.27969L6.8673 12.6985C6.84322 12.7505 6.86466 12.8109 6.91772 12.8403C6.93813 12.8517 6.96082 12.8571 6.98339 12.8571C7.01957 12.8571 7.05524 12.8431 7.07995 12.8166L11.1136 8.47371C11.1452 8.43966 11.152 8.39212 11.1313 8.35178Z" fill="#C7CED5"/>
</svg>
