<svg width="19" height="19" viewBox="0 0 19 19" fill="none" xmlns="http://www.w3.org/2000/svg">
<path d="M9.5 1.78125C6.55676 1.78125 4.15625 4.18176 4.15625 7.125C4.15625 7.95996 4.49487 8.91785 4.9541 9.96387C5.41333 11.0099 6.00476 12.1208 6.60547 13.1553C7.80689 15.2264 9.01758 16.959 9.01758 16.959L9.5 17.6641L9.98242 16.959C9.98242 16.959 11.1931 15.2264 12.3945 13.1553C12.9952 12.1208 13.5867 11.0099 14.0459 9.96387C14.5051 8.91785 14.8438 7.95996 14.8438 7.125C14.8438 4.18176 12.4432 1.78125 9.5 1.78125ZM9.5 2.96875C11.8031 2.96875 13.6562 4.8219 13.6562 7.125C13.6562 7.60046 13.4011 8.50037 12.9697 9.48145C12.5383 10.4625 11.9423 11.5503 11.3555 12.5615C10.4231 14.1711 9.84326 15.0223 9.5 15.5303C9.15674 15.0223 8.5769 14.1711 7.64453 12.5615C7.05774 11.5503 6.46167 10.4625 6.03027 9.48145C5.59888 8.50037 5.34375 7.60046 5.34375 7.125C5.34375 4.8219 7.1969 2.96875 9.5 2.96875ZM9.5 5.9375C8.84363 5.9375 8.3125 6.46863 8.3125 7.125C8.3125 7.78137 8.84363 8.3125 9.5 8.3125C10.1564 8.3125 10.6875 7.78137 10.6875 7.125C10.6875 6.46863 10.1564 5.9375 9.5 5.9375Z" fill="white"/>
</svg>
